<svg width="45" height="49" viewBox="0 0 45 49" fill="none" xmlns="http://www.w3.org/2000/svg">
<g filter="url(#filter0_d_13_1584)">
<path d="M22.1468 7.25024C20.064 7.25024 18.3695 8.94479 18.3695 11.0275C18.3695 13.1103 20.064 14.8048 22.1468 14.8048C24.2296 14.8048 25.9241 13.1103 25.9241 11.0275C25.9241 8.94479 24.2296 7.25024 22.1468 7.25024Z" fill="white"/>
<path d="M34.4538 30.3703C32.5368 29.8243 30.2595 29.4212 27.7812 29.1785C25.3781 32.8066 23.3021 35.4402 23.0961 35.6999C22.8663 35.9897 22.5166 36.1586 22.1468 36.1586C21.777 36.1586 21.4274 35.9897 21.1976 35.6999C20.9916 35.4402 18.9155 32.8066 16.5125 29.1785C14.0341 29.4212 11.7569 29.8243 9.83989 30.3703C5.96485 31.4742 4 33.014 4 34.9469C4 36.8798 5.96485 38.4195 9.83989 39.5234C13.1436 40.4646 17.5141 40.9828 22.1468 40.9828C26.7796 40.9828 31.1501 40.4645 34.4537 39.5235C38.3287 38.4196 40.2936 36.8799 40.2936 34.947C40.2936 33.014 38.3288 31.4742 34.4538 30.3703Z" fill="white"/>
<path d="M22.1469 0C16.0663 0 11.1192 4.94691 11.1192 11.0277C11.1192 14.2727 13.1722 19.288 17.0561 25.5312C19.0285 28.7018 21.0152 31.4439 22.1468 32.9531C23.2815 31.4396 25.2757 28.6868 27.2501 25.5111C31.1258 19.2774 33.1745 14.2691 33.1745 11.0277C33.1745 4.94691 28.2275 0 22.1469 0ZM22.1469 17.2284C18.7279 17.2284 15.9462 14.4467 15.9462 11.0277C15.9462 7.60855 18.7279 4.82693 22.1469 4.82693C25.5659 4.82693 28.3476 7.60855 28.3476 11.0277C28.3476 14.4468 25.5659 17.2284 22.1469 17.2284Z" fill="#FF3811"/>
</g>
<defs>
<filter id="filter0_d_13_1584" x="0" y="0" width="44.2936" height="48.9829" filterUnits="userSpaceOnUse" color-interpolation-filters="sRGB">
<feFlood flood-opacity="0" result="BackgroundImageFix"/>
<feColorMatrix in="SourceAlpha" type="matrix" values="0 0 0 0 0 0 0 0 0 0 0 0 0 0 0 0 0 0 127 0" result="hardAlpha"/>
<feOffset dy="4"/>
<feGaussianBlur stdDeviation="2"/>
<feComposite in2="hardAlpha" operator="out"/>
<feColorMatrix type="matrix" values="0 0 0 0 0 0 0 0 0 0 0 0 0 0 0 0 0 0 0.25 0"/>
<feBlend mode="normal" in2="BackgroundImageFix" result="effect1_dropShadow_13_1584"/>
<feBlend mode="normal" in="SourceGraphic" in2="effect1_dropShadow_13_1584" result="shape"/>
</filter>
</defs>
</svg>
